<?xml version="1.0" encoding="utf-8"?>
<!-- Generator: Adobe Illustrator 18.1.1, SVG Export Plug-In . SVG Version: 6.00 Build 0)  -->
<!DOCTYPE svg PUBLIC "-//W3C//DTD SVG 1.1//EN" "http://www.w3.org/Graphics/SVG/1.1/DTD/svg11.dtd">
<svg version="1.1" id="Layer_1" xmlns="http://www.w3.org/2000/svg" xmlns:xlink="http://www.w3.org/1999/xlink" x="0px" y="0px"
	 viewBox="4.9 8.3 23 16.7" enable-background="new 4.9 8.3 23 16.7" xml:space="preserve">
<g>
	<g>
		<defs>
			<filter id="Adobe_OpacityMaskFilter" filterUnits="userSpaceOnUse" x="5.2" y="8.3" width="22.7" height="16.7">
				<feColorMatrix  type="matrix" values="1 0 0 0 0  0 1 0 0 0  0 0 1 0 0  0 0 0 1 0"/>
			</filter>
		</defs>
		<mask maskUnits="userSpaceOnUse" x="5.2" y="8.3" width="22.7" height="16.7" id="SVGID_1_">
			<g filter="url(#Adobe_OpacityMaskFilter)">
				<g>
					<g>
						<defs>
							<rect id="SVGID_2_" x="1" y="4" width="31.2" height="24.2"/>
						</defs>
						<clipPath id="SVGID_3_">
							<use xlink:href="#SVGID_2_"  overflow="visible"/>
						</clipPath>
						<g transform="matrix(1 0 0 1 0 0)">
							<g clip-path="url(#SVGID_3_)" enable-background="new    ">
								
									<image overflow="visible" width="765" height="594" xlink:href="47354170A9DA91A7.jpeg"  transform="matrix(4.083150e-02 0 0 4.074047e-02 0.9663 4.0281)">
								</image>
							</g>
						</g>
					</g>
				</g>
			</g>
		</mask>
		<g mask="url(#SVGID_1_)">
			<g>
				<g>
					<defs>
						<rect id="SVGID_4_" x="5.2" y="8.3" width="22.7" height="16.7"/>
					</defs>
					<clipPath id="SVGID_5_">
						<use xlink:href="#SVGID_4_"  overflow="visible"/>
					</clipPath>
					<rect x="5.2" y="8.3" clip-path="url(#SVGID_5_)" fill="#D5D5D5" width="22.7" height="16.7"/>
				</g>
			</g>
		</g>
		<path fill="#FFF2D3" d="M5.2,8.4v11.4c0,0.4,0,0.8-0.1,1.2l-0.2,4c0,0,16-1.1,22.7-0.5C26,20.4,26.7,8.4,26.7,8.4L5.2,8.4L5.2,8.4
			z"/>
	</g>
</g>
</svg>
