<?xml version="1.0" encoding="utf-8"?>
<!-- Generator: Adobe Illustrator 18.1.1, SVG Export Plug-In . SVG Version: 6.00 Build 0)  -->
<!DOCTYPE svg PUBLIC "-//W3C//DTD SVG 1.1//EN" "http://www.w3.org/Graphics/SVG/1.1/DTD/svg11.dtd">
<svg version="1.1" id="Layer_1" xmlns="http://www.w3.org/2000/svg" xmlns:xlink="http://www.w3.org/1999/xlink" x="0px" y="0px"
	 viewBox="5.3 8.9 22.9 17.2" enable-background="new 5.3 8.9 22.9 17.2" xml:space="preserve">
<g>
	<g>
		<defs>
			<filter id="Adobe_OpacityMaskFilter" filterUnits="userSpaceOnUse" x="5.6" y="8.9" width="22.6" height="17.2">
				<feColorMatrix  type="matrix" values="1 0 0 0 0  0 1 0 0 0  0 0 1 0 0  0 0 0 1 0"/>
			</filter>
		</defs>
		<mask maskUnits="userSpaceOnUse" x="5.6" y="8.9" width="22.6" height="17.2" id="SVGID_1_">
			<g filter="url(#Adobe_OpacityMaskFilter)">
				<g>
					<g>
						<defs>
							<rect id="SVGID_2_" x="1.1" y="3.8" width="31.6" height="24.8"/>
						</defs>
						<clipPath id="SVGID_3_">
							<use xlink:href="#SVGID_2_"  overflow="visible"/>
						</clipPath>
						<g transform="matrix(1 0 0 1 0 0)">
							<g transform="matrix(1 0 0 1 0 2.384186e-07)" clip-path="url(#SVGID_3_)" enable-background="new    ">
								
									<image overflow="visible" width="734" height="576" xlink:href="33BBF44C05BD938.jpeg"  transform="matrix(4.305058e-02 0 0 4.306664e-02 1.1156 3.7958)">
								</image>
							</g>
						</g>
					</g>
				</g>
			</g>
		</mask>
		<g mask="url(#SVGID_1_)">
			<g>
				<g>
					<defs>
						<rect id="SVGID_4_" x="5.6" y="8.9" width="22.6" height="17.2"/>
					</defs>
					<clipPath id="SVGID_5_">
						<use xlink:href="#SVGID_4_"  overflow="visible"/>
					</clipPath>
					<rect x="5.6" y="8.9" clip-path="url(#SVGID_5_)" fill="#D5D5D5" width="22.6" height="17.2"/>
				</g>
			</g>
		</g>
		<path fill="#FFF2D3" d="M24.1,10.7L24,10.9h-1.1l-0.2-0.2v-0.5L23,10h0.6c0.2,0,0.4,0.1,0.6,0.2L24.1,10.7L24.1,10.7z M21.2,10.4
			c0,0.2-0.1,0.3-0.2,0.5l-1.1-0.1c-0.1-0.1-0.1-0.3-0.1-0.4l0-0.2c0.2-0.1,0.4-0.2,0.6-0.2h0.4c0.2,0,0.4,0.1,0.5,0.3L21.2,10.4
			L21.2,10.4z M18.2,10.6c0,0.1-0.2,0.3-0.2,0.3s-0.9,0-1,0c-0.2,0-0.4-0.1-0.4-0.1s0-0.3,0-0.5c0-0.2,0.5-0.2,0.5-0.2s0.5,0,0.7,0
			c0.2,0,0.3,0.1,0.3,0.1L18.2,10.6L18.2,10.6z M15.3,10.7c0,0.1-0.1,0.1-0.2,0.1c0,0,0,0-0.1,0h-0.9c-0.1,0-0.1,0-0.2-0.1
			c-0.1-0.1-0.1-0.2-0.1-0.3v-0.3c0-0.1,0.4-0.2,0.4-0.2s0.7,0,0.9,0c0,0,0,0,0,0c0.2,0,0.3,0.2,0.3,0.3L15.3,10.7L15.3,10.7z
			 M12.2,10.5L12.2,10.5c0,0.1-0.1,0.3-0.3,0.3l-0.5,0.1h-0.5l-0.1-0.3c0.2-0.2,0.4-0.4,0.7-0.4L12,10l0.2,0.2
			C12.2,10.2,12.2,10.5,12.2,10.5z M9.1,10.9H8.4c-0.2,0-0.4-0.1-0.5-0.2l-0.2-0.1l0-0.2C7.9,10.2,8.1,10,8.4,10h0.7l0.2,0.3
			L9.1,10.9z M27.5,9.3l-0.6,0l-0.1-0.4l-0.9,0.1l-0.7,0.4l1.6,0.1l-0.4,0.4l0,0.4c0,0.5-0.4,0.4-0.8,0.5c-0.3,0-0.5-0.2-0.5-0.4
			l0,0.1c0-0.2,0.1-0.4,0.3-0.6L24.6,9l-4.2,0.1l-2.1,0L16.5,9L14,9h-2.5L8.8,9.1l-3,0.1L5.6,9.8l0.2,0.3L6,10.2c0,0,0.2,0.5,0,0.6
			c-0.2,0-0.7,0.2-0.7,0.2v14.7h1.9L8.7,25l2.2,0.8l1.3-0.4l1.7-0.2l2.9,0l1.6,0.9l2.7-0.8l1.1-0.1l1.6-0.3l2.2,0.7h2L27.5,9.3z"/>
	</g>
</g>
</svg>
