<?xml version="1.0" encoding="utf-8"?>
<!-- Generator: Adobe Illustrator 18.1.1, SVG Export Plug-In . SVG Version: 6.00 Build 0)  -->
<!DOCTYPE svg PUBLIC "-//W3C//DTD SVG 1.1//EN" "http://www.w3.org/Graphics/SVG/1.1/DTD/svg11.dtd">
<svg version="1.1" id="Layer_1" xmlns="http://www.w3.org/2000/svg" xmlns:xlink="http://www.w3.org/1999/xlink" x="0px" y="0px"
	 viewBox="4.5 7.7 23.4 17.4" enable-background="new 4.5 7.7 23.4 17.4" xml:space="preserve">
<g>
	<g>
		<defs>
			<filter id="Adobe_OpacityMaskFilter" filterUnits="userSpaceOnUse" x="4.8" y="7.7" width="23" height="17.4">
				<feColorMatrix  type="matrix" values="1 0 0 0 0  0 1 0 0 0  0 0 1 0 0  0 0 0 1 0"/>
			</filter>
		</defs>
		<mask maskUnits="userSpaceOnUse" x="4.8" y="7.7" width="23" height="17.4" id="SVGID_1_">
			<g filter="url(#Adobe_OpacityMaskFilter)">
				<g>
					<g>
						<defs>
							<rect id="SVGID_2_" x="0.1" y="3" width="32.3" height="26.5"/>
						</defs>
						<clipPath id="SVGID_3_">
							<use xlink:href="#SVGID_2_"  overflow="visible"/>
						</clipPath>
						<g transform="matrix(1 0 0 1 0 3.814697e-06)">
							<g transform="matrix(1 0 0 1 0 -2.384186e-07)" clip-path="url(#SVGID_3_)" enable-background="new    ">
								
									<image overflow="visible" width="725" height="595" xlink:href="63DC7F83D6150839.jpeg"  transform="matrix(4.457404e-02 0 0 4.452001e-02 0.1416 2.9667)">
								</image>
							</g>
						</g>
					</g>
				</g>
			</g>
		</mask>
		<g mask="url(#SVGID_1_)">
			<g>
				<g>
					<defs>
						<polygon id="SVGID_4_" points="4.8,24.8 27.9,25.1 27.8,7.7 4.8,7.7 						"/>
					</defs>
					<clipPath id="SVGID_5_">
						<use xlink:href="#SVGID_4_"  overflow="visible"/>
					</clipPath>
					<polygon clip-path="url(#SVGID_5_)" fill="#D5D5D5" points="4.8,7.7 27.8,7.7 27.9,25.1 4.8,24.8 					"/>
				</g>
			</g>
		</g>
		<path fill="#FFF2D3" d="M27.3,25.1c0.1-9.4,0.1-17.8-0.1-17.1C26.7,9.7,4.7,7.7,4.7,7.7v1.6l0.7,0.6l0,1H5.2l-0.5-0.1v1h0.5
			l0.2,1.6H5l-0.3-0.5l0.1,1.5l0.2-0.1l0.6,0.4l-0.1,0.8l-0.4,0.3L4.5,15l0.3,1.8h0.5v1.4l-0.3-0.1l-0.4-0.2v1.5h0.6l0.1,1.2L5,20.6
			l-0.4-0.2v1.4h0.8v1.5l-0.3,0.3l-0.5-0.8l-0.1,1.7c0.1,0,0.2,0,0.2,0l0.1-0.1l0.5,0.1v0.1C12.7,25,20,25,27.3,25.1"/>
	</g>
</g>
</svg>
