<?xml version="1.0" encoding="utf-8"?>
<!-- Generator: Adobe Illustrator 18.1.1, SVG Export Plug-In . SVG Version: 6.00 Build 0)  -->
<!DOCTYPE svg PUBLIC "-//W3C//DTD SVG 1.1//EN" "http://www.w3.org/Graphics/SVG/1.1/DTD/svg11.dtd">
<svg version="1.1" id="Layer_1" xmlns="http://www.w3.org/2000/svg" xmlns:xlink="http://www.w3.org/1999/xlink" x="0px" y="0px"
	 viewBox="12.8 3.3 6.3 25.7" enable-background="new 12.8 3.3 6.3 25.7" xml:space="preserve">
<g>
	<g>
		<defs>
			<filter id="Adobe_OpacityMaskFilter" filterUnits="userSpaceOnUse" x="13.3" y="3.3" width="5.8" height="25.6">
				<feColorMatrix  type="matrix" values="1 0 0 0 0  0 1 0 0 0  0 0 1 0 0  0 0 0 1 0"/>
			</filter>
		</defs>
		<mask maskUnits="userSpaceOnUse" x="13.3" y="3.3" width="5.8" height="25.6" id="SVGID_1_">
			<g filter="url(#Adobe_OpacityMaskFilter)">
				<g>
					<g>
						<defs>
							<rect id="SVGID_2_" x="3.1" y="-6.9" width="26.2" height="46"/>
						</defs>
						<clipPath id="SVGID_3_">
							<use xlink:href="#SVGID_2_"  overflow="visible"/>
						</clipPath>
						<g>
							<g transform="matrix(1 0 0 1 -2.384186e-07 0)" clip-path="url(#SVGID_3_)" enable-background="new    ">
								
									<image overflow="visible" width="274" height="480" xlink:href="9A39C1405C3BC49B.jpeg"  transform="matrix(9.572322e-02 0 0 9.592707e-02 3.0834 -6.9048)">
								</image>
							</g>
						</g>
					</g>
				</g>
			</g>
		</mask>
		<g mask="url(#SVGID_1_)">
			<g>
				<g>
					<defs>
						<rect id="SVGID_4_" x="13.3" y="3.3" width="5.8" height="25.6"/>
					</defs>
					<clipPath id="SVGID_5_">
						<use xlink:href="#SVGID_4_"  overflow="visible"/>
					</clipPath>
					<rect x="13.3" y="3.3" clip-path="url(#SVGID_5_)" fill="#D5D5D5" width="5.8" height="25.6"/>
				</g>
			</g>
		</g>
		<path fill="#FFF2D3" d="M18.5,3.4l0.1,13.5c0,6.2-0.2,11.5-0.2,11.5s-3.3,1.3-5.6-0.2c1.5-7,0.3-24.8,0.3-24.8H18.5z"/>
	</g>
</g>
</svg>
