<?xml version="1.0" encoding="utf-8"?>
<!-- Generator: Adobe Illustrator 18.1.1, SVG Export Plug-In . SVG Version: 6.00 Build 0)  -->
<!DOCTYPE svg PUBLIC "-//W3C//DTD SVG 1.1//EN" "http://www.w3.org/Graphics/SVG/1.1/DTD/svg11.dtd">
<svg version="1.1" id="Layer_1" xmlns="http://www.w3.org/2000/svg" xmlns:xlink="http://www.w3.org/1999/xlink" x="0px" y="0px"
	 viewBox="9.7 4 12.7 23.9" enable-background="new 9.7 4 12.7 23.9" xml:space="preserve">
<g>
	<g>
		<defs>
			<filter id="Adobe_OpacityMaskFilter" filterUnits="userSpaceOnUse" x="9.8" y="4" width="12.6" height="23.9">
				<feColorMatrix  type="matrix" values="1 0 0 0 0  0 1 0 0 0  0 0 1 0 0  0 0 0 1 0"/>
			</filter>
		</defs>
		<mask maskUnits="userSpaceOnUse" x="9.8" y="4" width="12.6" height="23.9" id="SVGID_1_">
			<g filter="url(#Adobe_OpacityMaskFilter)">
				<g>
					<g>
						<defs>
							<rect id="SVGID_2_" x="8" y="2.1" width="16.3" height="27.5"/>
						</defs>
						<clipPath id="SVGID_3_">
							<use xlink:href="#SVGID_2_"  overflow="visible"/>
						</clipPath>
						<g transform="matrix(1 0 0 1 0 0)">
							<g clip-path="url(#SVGID_3_)" enable-background="new    ">
								
									<image overflow="visible" width="930" height="1572" xlink:href="8FDC0244BA606333.jpeg"  transform="matrix(1.749888e-02 0 0 1.752457e-02 7.9951 2.1423)">
								</image>
							</g>
						</g>
					</g>
				</g>
			</g>
		</mask>
		<g mask="url(#SVGID_1_)">
			<g>
				<g>
					<defs>
						<rect id="SVGID_4_" x="9.8" y="4" width="12.6" height="23.9"/>
					</defs>
					<clipPath id="SVGID_5_">
						<use xlink:href="#SVGID_4_"  overflow="visible"/>
					</clipPath>
					<rect x="9.8" y="4" clip-path="url(#SVGID_5_)" fill="#D5D5D5" width="12.6" height="23.9"/>
				</g>
			</g>
		</g>
		<path fill="#FFF2D3" d="M10.4,4c0,0,0.1,18.4-0.7,23.4c4.4-0.7,9.2,1.6,12.6-0.3C21.2,23.7,21.5,4,21.5,4L10.4,4L10.4,4z"/>
	</g>
</g>
</svg>
