<?xml version="1.0" encoding="utf-8"?>
<!-- Generator: Adobe Illustrator 18.1.1, SVG Export Plug-In . SVG Version: 6.00 Build 0)  -->
<!DOCTYPE svg PUBLIC "-//W3C//DTD SVG 1.1//EN" "http://www.w3.org/Graphics/SVG/1.1/DTD/svg11.dtd">
<svg version="1.1" id="Layer_1" xmlns="http://www.w3.org/2000/svg" xmlns:xlink="http://www.w3.org/1999/xlink" x="0px" y="0px"
	 viewBox="9.5 4.1 13 22.1" enable-background="new 9.5 4.1 13 22.1" xml:space="preserve">
<g>
	<g>
		<g>
			<g>
				<defs>
					<filter id="Adobe_OpacityMaskFilter" filterUnits="userSpaceOnUse" x="9.7" y="4.1" width="12.8" height="22">
						<feColorMatrix  type="matrix" values="1 0 0 0 0  0 1 0 0 0  0 0 1 0 0  0 0 0 1 0"/>
					</filter>
				</defs>
				<mask maskUnits="userSpaceOnUse" x="9.7" y="4.1" width="12.8" height="22" id="SVGID_3_">
					<g filter="url(#Adobe_OpacityMaskFilter)">
						<g>
							<g>
								<defs>
									<rect id="SVGID_1_" x="8.7" y="3.5" width="14.5" height="22.7"/>
								</defs>
								<clipPath id="SVGID_2_">
									<use xlink:href="#SVGID_1_"  overflow="visible"/>
								</clipPath>
							</g>
							<g>
								<defs>
									<rect id="SVGID_4_" x="8.7" y="3.5" width="14.5" height="22.7"/>
								</defs>
								<defs>
									<rect id="SVGID_5_" x="7.5" y="1.9" width="17.2" height="26.4"/>
								</defs>
								<clipPath id="SVGID_6_">
									<use xlink:href="#SVGID_4_"  overflow="visible"/>
								</clipPath>
								<clipPath id="SVGID_7_" clip-path="url(#SVGID_6_)">
									<use xlink:href="#SVGID_5_"  overflow="visible"/>
								</clipPath>
								<g>
									<g transform="matrix(1 0 0 1 4.768372e-07 0)" clip-path="url(#SVGID_7_)" enable-background="new    ">
										
											<image overflow="visible" width="830" height="1274" xlink:href="EF739311E3022624.jpeg"  transform="matrix(2.072087e-02 0 0 2.074069e-02 7.4884 1.896)">
										</image>
									</g>
								</g>
							</g>
						</g>
					</g>
				</mask>
				<g mask="url(#SVGID_3_)">
					<g>
						<defs>
							<rect id="SVGID_8_" x="9.7" y="4.1" width="12.8" height="22"/>
						</defs>
						<clipPath id="SVGID_9_">
							<use xlink:href="#SVGID_8_"  overflow="visible"/>
						</clipPath>
						<rect x="9.7" y="4.1" clip-path="url(#SVGID_9_)" fill="#D5D5D5" width="12.8" height="22"/>
					</g>
				</g>
				<g>
					<path fill="#FFF2D3" d="M9.7,4.1v5.3c0,0.2,0,0.4-0.1,0.6L9.5,26.1c0,0,9.4-0.5,12.8-0.2C21.7,23,21.9,4.1,21.9,4.1H9.7z"/>
				</g>
			</g>
		</g>
	</g>
</g>
</svg>
