<?xml version="1.0" encoding="utf-8"?>
<!-- Generator: Adobe Illustrator 18.1.1, SVG Export Plug-In . SVG Version: 6.00 Build 0)  -->
<!DOCTYPE svg PUBLIC "-//W3C//DTD SVG 1.1//EN" "http://www.w3.org/Graphics/SVG/1.1/DTD/svg11.dtd">
<svg version="1.1" id="Layer_1" xmlns="http://www.w3.org/2000/svg" xmlns:xlink="http://www.w3.org/1999/xlink" x="0px" y="0px"
	 viewBox="4.6 8.4 22.7 15.5" enable-background="new 4.6 8.4 22.7 15.5" xml:space="preserve">
<g>
	<g>
		<defs>
			<filter id="Adobe_OpacityMaskFilter" filterUnits="userSpaceOnUse" x="4.9" y="8.4" width="22.4" height="15.5">
				<feColorMatrix  type="matrix" values="1 0 0 0 0  0 1 0 0 0  0 0 1 0 0  0 0 0 1 0"/>
			</filter>
		</defs>
		<mask maskUnits="userSpaceOnUse" x="4.9" y="8.4" width="22.4" height="15.5" id="SVGID_1_">
			<g filter="url(#Adobe_OpacityMaskFilter)">
				<g>
					<g>
						<defs>
							<rect id="SVGID_2_" x="0.9" y="4.3" width="30.5" height="23.6"/>
						</defs>
						<clipPath id="SVGID_3_">
							<use xlink:href="#SVGID_2_"  overflow="visible"/>
						</clipPath>
						<g>
							<g transform="matrix(1 0 0 1 5.960464e-08 0)" clip-path="url(#SVGID_3_)" enable-background="new    ">
								
									<image overflow="visible" width="787" height="612" xlink:href="26D2D5FD6B92E9E5.jpeg"  transform="matrix(3.874667e-02 0 0 3.862004e-02 0.8651 4.3172)">
								</image>
							</g>
						</g>
					</g>
				</g>
			</g>
		</mask>
		<g mask="url(#SVGID_1_)">
			<g>
				<g>
					<defs>
						<rect id="SVGID_4_" x="4.9" y="8.4" width="22.4" height="15.5"/>
					</defs>
					<clipPath id="SVGID_5_">
						<use xlink:href="#SVGID_4_"  overflow="visible"/>
					</clipPath>
					<rect x="4.9" y="8.4" clip-path="url(#SVGID_5_)" fill="#D5D5D5" width="22.4" height="15.5"/>
				</g>
			</g>
		</g>
		<path fill="#FFF2D3" d="M26.7,8.4l0.3,8.4c0.1,3.9-1.3,7-1.3,7s-17.3,0.7-21-1.6C7.5,20.4,6.3,8.4,6.3,8.4S26.7,8.4,26.7,8.4z"/>
	</g>
</g>
</svg>
