<?xml version="1.0" encoding="utf-8"?>
<!-- Generator: Adobe Illustrator 18.1.1, SVG Export Plug-In . SVG Version: 6.00 Build 0)  -->
<!DOCTYPE svg PUBLIC "-//W3C//DTD SVG 1.1//EN" "http://www.w3.org/Graphics/SVG/1.1/DTD/svg11.dtd">
<svg version="1.1" id="Layer_1" xmlns="http://www.w3.org/2000/svg" xmlns:xlink="http://www.w3.org/1999/xlink" x="0px" y="0px"
	 viewBox="5 8.3 23.4 16.3" enable-background="new 5 8.3 23.4 16.3" xml:space="preserve">
<g>
	<g>
		<defs>
			<filter id="Adobe_OpacityMaskFilter" filterUnits="userSpaceOnUse" x="5.3" y="8.3" width="23.1" height="16.2">
				<feColorMatrix  type="matrix" values="1 0 0 0 0  0 1 0 0 0  0 0 1 0 0  0 0 0 1 0"/>
			</filter>
		</defs>
		<mask maskUnits="userSpaceOnUse" x="5.3" y="8.3" width="23.1" height="16.2" id="SVGID_1_">
			<g filter="url(#Adobe_OpacityMaskFilter)">
				<g>
					<g>
						<defs>
							<rect id="SVGID_2_" x="0.7" y="3.3" width="32.3" height="25.9"/>
						</defs>
						<clipPath id="SVGID_3_">
							<use xlink:href="#SVGID_2_"  overflow="visible"/>
						</clipPath>
						<g>
							<g transform="matrix(1 0 0 1 -5.960464e-08 0)" clip-path="url(#SVGID_3_)" enable-background="new    ">
								
									<image overflow="visible" width="733" height="587" xlink:href="B9854C2328F83062.jpeg"  transform="matrix(4.407727e-02 0 0 4.410710e-02 0.7122 3.2737)">
								</image>
							</g>
						</g>
					</g>
				</g>
			</g>
		</mask>
		<g mask="url(#SVGID_1_)">
			<g>
				<g>
					<defs>
						<rect id="SVGID_4_" x="5.3" y="8.3" width="23.1" height="16.2"/>
					</defs>
					<clipPath id="SVGID_5_">
						<use xlink:href="#SVGID_4_"  overflow="visible"/>
					</clipPath>
					<rect x="5.3" y="8.3" clip-path="url(#SVGID_5_)" fill="#D5D5D5" width="23.1" height="16.2"/>
				</g>
			</g>
		</g>
		<path fill="#FFF2D3" d="M6.7,10.3l0.2,0.2h0.6l0.2-0.2v-0.3L7.4,9.9H6.7L6.7,10.3L6.7,10.3z M8.8,10.3v0.2h0.7l0.1-0.3l0.1-0.5
			L9.5,9.9H8.8L8.8,10.3L8.8,10.3z M10.6,10.2l0.2,0.3h0.7V10l-0.1-0.1h-0.5h-0.3L10.6,10.2L10.6,10.2z M18.4,9.8v0.8l0.9-0.1
			l0.1-0.4l-0.2-0.1L18.4,9.8L18.4,9.8L18.4,9.8z M20.3,10.5l1-0.1V9.9h-1V10.5z M5,9.2h7.4l0.2,0.6l-0.1,0.4l0.8,0.2l0.1-0.5
			l0.1-0.5l-0.2,0.2l-0.8-0.7l0.4-0.5l1,1h1l0.1-0.5h0.5l0.1,0.3l-0.4,0.4L14.6,10l-0.1,0.4l0.9,0l0.1-0.6l-0.2-0.1l0.2-0.4l1-0.2
			l0.2,0.5L16.5,10v0.5l1,0V9.9l-0.3-0.2l0.3-0.4h0.8l0-0.3l1,0.1h1l0-0.2l1,0.2l1.5,0l-0.1,0.6l-0.4,0.2l0.2,0.4l0.9,0.2l-0.1-0.5
			l0.1-0.8l0.9-0.1l0.3,0.6l-0.2,0.2l0,0.4l0.9,0V9.9l0.2-0.7h0.8l0.1,0.7l0,0.4l0.8,0.1l-0.1-0.7l0.4-0.3c0,0-0.2-0.6-0.1-0.6
			c0.1,0,0.4,0,0.4,0l0.2,1.3l-0.2,13.8c0,0-0.3,0.6-0.4,0.6c-0.1,0-22.3-0.2-22.3-0.2l0.1-3.7l0-10.2l0.4,0l0.1-0.5L5,9.7
			C5,9.7,5,9.2,5,9.2z"/>
	</g>
</g>
</svg>
