<?xml version="1.0" encoding="utf-8"?>
<!-- Generator: Adobe Illustrator 18.1.1, SVG Export Plug-In . SVG Version: 6.00 Build 0)  -->
<!DOCTYPE svg PUBLIC "-//W3C//DTD SVG 1.1//EN" "http://www.w3.org/Graphics/SVG/1.1/DTD/svg11.dtd">
<svg version="1.1" id="Layer_1" xmlns="http://www.w3.org/2000/svg" xmlns:xlink="http://www.w3.org/1999/xlink" x="0px" y="0px"
	 viewBox="3.5 7.8 25.9 17" enable-background="new 3.5 7.8 25.9 17" xml:space="preserve">
<g>
	<g>
		<defs>
			<filter id="Adobe_OpacityMaskFilter" filterUnits="userSpaceOnUse" x="3.9" y="7.8" width="25.5" height="16.9">
				<feColorMatrix  type="matrix" values="1 0 0 0 0  0 1 0 0 0  0 0 1 0 0  0 0 0 1 0"/>
			</filter>
		</defs>
		<mask maskUnits="userSpaceOnUse" x="3.9" y="7.8" width="25.5" height="16.9" id="SVGID_1_">
			<g filter="url(#Adobe_OpacityMaskFilter)">
				<g>
					<g>
						<defs>
							<rect id="SVGID_2_" x="-0.7" y="3.2" width="34.7" height="26.1"/>
						</defs>
						<clipPath id="SVGID_3_">
							<use xlink:href="#SVGID_2_"  overflow="visible"/>
						</clipPath>
						<g>
							<g transform="matrix(1 0 0 1 0 0)" clip-path="url(#SVGID_3_)" enable-background="new    ">
								
									<image overflow="visible" width="796" height="599" xlink:href="885E12ECA97CF32D.jpeg"  transform="matrix(4.356399e-02 0 0 4.350933e-02 -0.7179 3.2172)">
								</image>
							</g>
						</g>
					</g>
				</g>
			</g>
		</mask>
		<g mask="url(#SVGID_1_)">
			<g>
				<g>
					<defs>
						<rect id="SVGID_4_" x="3.9" y="7.8" width="25.5" height="16.9"/>
					</defs>
					<clipPath id="SVGID_5_">
						<use xlink:href="#SVGID_4_"  overflow="visible"/>
					</clipPath>
					<rect x="3.9" y="7.8" clip-path="url(#SVGID_5_)" fill="#D5D5D5" width="25.5" height="16.9"/>
				</g>
			</g>
		</g>
		<path fill="#FFF2D3" d="M5,7.9c0,0,0.2,12.8-1.5,16.2C8.8,25,25,25.3,29,22.8c-3.2-1.9-1.6-14.9-1.6-14.9S5,7.9,5,7.9z"/>
	</g>
</g>
</svg>
