<?xml version="1.0" encoding="utf-8"?>
<!-- Generator: Adobe Illustrator 18.1.1, SVG Export Plug-In . SVG Version: 6.00 Build 0)  -->
<!DOCTYPE svg PUBLIC "-//W3C//DTD SVG 1.1//EN" "http://www.w3.org/Graphics/SVG/1.1/DTD/svg11.dtd">
<svg version="1.1" id="Layer_1" xmlns="http://www.w3.org/2000/svg" xmlns:xlink="http://www.w3.org/1999/xlink" x="0px" y="0px"
	 viewBox="5.2 7.8 21.9 16.8" enable-background="new 5.2 7.8 21.9 16.8" xml:space="preserve">
<g>
	<g>
		<defs>
			<filter id="Adobe_OpacityMaskFilter" filterUnits="userSpaceOnUse" x="5.5" y="7.8" width="21.6" height="16.7">
				<feColorMatrix  type="matrix" values="1 0 0 0 0  0 1 0 0 0  0 0 1 0 0  0 0 0 1 0"/>
			</filter>
		</defs>
		<mask maskUnits="userSpaceOnUse" x="5.5" y="7.8" width="21.6" height="16.7" id="SVGID_1_">
			<g filter="url(#Adobe_OpacityMaskFilter)">
				<g>
					<g>
						<defs>
							<rect id="SVGID_2_" x="1.2" y="3.5" width="30.2" height="25.3"/>
						</defs>
						<clipPath id="SVGID_3_">
							<use xlink:href="#SVGID_2_"  overflow="visible"/>
						</clipPath>
						<g>
							<g clip-path="url(#SVGID_3_)" enable-background="new    ">
								
									<image overflow="visible" width="740" height="621" xlink:href="47F71CB565D5A5CE.jpeg"  transform="matrix(4.081739e-02 0 0 4.079619e-02 1.1844 3.5241)">
								</image>
							</g>
						</g>
					</g>
				</g>
			</g>
		</mask>
		<g mask="url(#SVGID_1_)">
			<g>
				<g>
					<defs>
						<rect id="SVGID_4_" x="5.5" y="7.8" width="21.6" height="16.7"/>
					</defs>
					<clipPath id="SVGID_5_">
						<use xlink:href="#SVGID_4_"  overflow="visible"/>
					</clipPath>
					<rect x="5.5" y="7.8" clip-path="url(#SVGID_5_)" fill="#D5D5D5" width="21.6" height="16.7"/>
				</g>
			</g>
		</g>
		<path fill="#FFF2D3" d="M5.2,10.4l0.8-1.1h1.9h0.7h1.8L11,8.8l1.6-0.4L12.9,9l0.7-0.2L14,8.1l1.3,0.3c0,0,0.3,0.5,0.6,0.5
			c0.3-0.1,1.2-0.5,1.2-0.5s0.1-0.4,0.5-0.3C18,8.3,19,8.2,19.2,8.4c0.2,0.2,1.5,0,1.5,0l-0.2-0.5l1.3,0.5h1.5l1.5,0.3L25,8.4h0.7
			l1,0.6c0,0,0.4,13.7-0.5,15.6c-2-0.2-18-0.4-20.9,0C6.1,21.5,5.2,10.4,5.2,10.4"/>
	</g>
</g>
</svg>
