<?xml version="1.0" encoding="utf-8"?>
<!-- Generator: Adobe Illustrator 18.1.1, SVG Export Plug-In . SVG Version: 6.00 Build 0)  -->
<!DOCTYPE svg PUBLIC "-//W3C//DTD SVG 1.1//EN" "http://www.w3.org/Graphics/SVG/1.1/DTD/svg11.dtd">
<svg version="1.1" id="Layer_1" xmlns="http://www.w3.org/2000/svg" xmlns:xlink="http://www.w3.org/1999/xlink" x="0px" y="0px"
	 viewBox="5.9 9.1 21.4 14.2" enable-background="new 5.9 9.1 21.4 14.2" xml:space="preserve">
<g>
	<g>
		<defs>
			<filter id="Adobe_OpacityMaskFilter" filterUnits="userSpaceOnUse" x="6.2" y="9.1" width="21.1" height="14.2">
				<feColorMatrix  type="matrix" values="1 0 0 0 0  0 1 0 0 0  0 0 1 0 0  0 0 0 1 0"/>
			</filter>
		</defs>
		<mask maskUnits="userSpaceOnUse" x="6.2" y="9.1" width="21.1" height="14.2" id="SVGID_1_">
			<g filter="url(#Adobe_OpacityMaskFilter)">
				<g>
					<g>
						<defs>
							<rect id="SVGID_2_" x="2.1" y="5" width="29.2" height="22.3"/>
						</defs>
						<clipPath id="SVGID_3_">
							<use xlink:href="#SVGID_2_"  overflow="visible"/>
						</clipPath>
						<g>
							<g clip-path="url(#SVGID_3_)" enable-background="new    ">
								
									<image overflow="visible" width="761" height="581" xlink:href="AF7B747DB5F4C17A.jpeg"  transform="matrix(3.835734e-02 0 0 3.835734e-02 2.1492 5.0299)">
								</image>
							</g>
						</g>
					</g>
				</g>
			</g>
		</mask>
		<g mask="url(#SVGID_1_)">
			<g>
				<g>
					<defs>
						<rect id="SVGID_4_" x="6.2" y="9.1" width="21.1" height="14.2"/>
					</defs>
					<clipPath id="SVGID_5_">
						<use xlink:href="#SVGID_4_"  overflow="visible"/>
					</clipPath>
					<rect x="6.2" y="9.1" clip-path="url(#SVGID_5_)" fill="#D5D5D5" width="21.1" height="14.2"/>
				</g>
			</g>
		</g>
		<path fill="#FFF2D3" d="M6.3,9.1l-0.4,1.7v3.3l0.2,2.2l0.2,2.9v3.4c0,0-0.1,0.7,0.4,0.6c0.5-0.1,3-0.4,3-0.4l2-0.2
			c0,0,3.4,0.4,3.5,0.4h4.1c0.3,0,2.1-0.4,2.1-0.4s3.5,0.2,3.6,0.3c0.1,0.1,1.8,0.6,1.9,0.3c0.1-0.3,0-6.1,0-6.1l-0.6-4.9l0.7-1.9
			l-0.3-1.3H15.1l-3.5,0.4L9.3,9.4L6.3,9.1z"/>
	</g>
</g>
</svg>
