<?xml version="1.0" encoding="utf-8"?>
<!-- Generator: Adobe Illustrator 18.1.1, SVG Export Plug-In . SVG Version: 6.00 Build 0)  -->
<!DOCTYPE svg PUBLIC "-//W3C//DTD SVG 1.1//EN" "http://www.w3.org/Graphics/SVG/1.1/DTD/svg11.dtd">
<svg version="1.1" id="Layer_1" xmlns="http://www.w3.org/2000/svg" xmlns:xlink="http://www.w3.org/1999/xlink" x="0px" y="0px"
	 viewBox="4.7 8.5 22.7 15.4" enable-background="new 4.7 8.5 22.7 15.4" xml:space="preserve">
<g>
	<g>
		<defs>
			<filter id="Adobe_OpacityMaskFilter" filterUnits="userSpaceOnUse" x="5" y="8.5" width="22.4" height="15.4">
				<feColorMatrix  type="matrix" values="1 0 0 0 0  0 1 0 0 0  0 0 1 0 0  0 0 0 1 0"/>
			</filter>
		</defs>
		<mask maskUnits="userSpaceOnUse" x="5" y="8.5" width="22.4" height="15.4" id="SVGID_1_">
			<g filter="url(#Adobe_OpacityMaskFilter)">
				<g>
					<g>
						<defs>
							<rect id="SVGID_2_" x="0.4" y="3.8" width="31.7" height="24.7"/>
						</defs>
						<clipPath id="SVGID_3_">
							<use xlink:href="#SVGID_2_"  overflow="visible"/>
						</clipPath>
						<g>
							<g clip-path="url(#SVGID_3_)" enable-background="new    ">
								
									<image overflow="visible" width="719" height="559" xlink:href="3CAF9F7137CC7284.jpeg"  transform="matrix(4.404692e-02 0 0 4.413486e-02 0.3719 3.8064)">
								</image>
							</g>
						</g>
					</g>
				</g>
			</g>
		</mask>
		<g mask="url(#SVGID_1_)">
			<g>
				<g>
					<defs>
						<rect id="SVGID_4_" x="5" y="8.5" width="22.4" height="15.4"/>
					</defs>
					<clipPath id="SVGID_5_">
						<use xlink:href="#SVGID_4_"  overflow="visible"/>
					</clipPath>
					<rect x="5" y="8.5" clip-path="url(#SVGID_5_)" fill="#D5D5D5" width="22.4" height="15.4"/>
				</g>
			</g>
		</g>
		<path fill="#FFF2D3" d="M5.4,8.5v0.7L5.2,9.5H4.7l0,1.5l0.7,0.6v0.8L5,12.6l-0.3-0.5c0,0,0,1.5,0.1,1.7c0.1,0.2,0.7,0,0.7,0l0,0.9
			H5.2l-0.5-0.1l0.1,1.3h0.6L5.3,17l-0.2,0.2l-0.4-0.3l0.1,1.6l0.8-0.1v1.2c0,0.2-0.3,0-0.3,0l-0.4-0.3l0.1,1.7l0.7-0.1l-0.1,1H4.9
			l-0.3-0.4l0,2.4l22.2,0c0,0,0-6.8,0.1-15.1C19.8,8.7,12.6,9,5.4,8.5"/>
	</g>
</g>
</svg>
