<?xml version="1.0" encoding="utf-8"?>
<!-- Generator: Adobe Illustrator 18.1.1, SVG Export Plug-In . SVG Version: 6.00 Build 0)  -->
<!DOCTYPE svg PUBLIC "-//W3C//DTD SVG 1.1//EN" "http://www.w3.org/Graphics/SVG/1.1/DTD/svg11.dtd">
<svg version="1.1" id="Layer_1" xmlns="http://www.w3.org/2000/svg" xmlns:xlink="http://www.w3.org/1999/xlink" x="0px" y="0px"
	 viewBox="8.1 7.1 17 17.9" enable-background="new 8.1 7.1 17 17.9" xml:space="preserve">
<g>
	<path fill="#231F20" d="M24.6,7.3c-0.5-0.2-1.1,0-1.7-0.1c-0.3,0-0.6-0.1-0.8-0.1c-0.5,0-1.1,0.2-1.6,0.2c-0.6,0-1.2,0-1.7,0
		c-2,0-5.3-0.1-7.3-0.1C11,7.5,10,7.5,9.5,7.5C9.4,7.7,9,7.7,9,7.9C8.7,7.8,8.5,8,8.3,8c-0.8,1.6,0.6,2.1,1.9,2.2
		c1.3,0.2,2.3-0.1,3.5,0c0.6,0,1.2,0.2,1.7,0.2c0.5,0,1.1-0.2,1.4-0.3c1.2,0.3,3.9,0,4.8,0c1-0.5,2.4-0.4,3.2-1.1
		c0-0.2,0.1-0.5,0.3-0.7C25,8,24.8,7.6,24.6,7.3"/>
	<path fill="#231F20" d="M24.6,14.4c-0.5-0.2-1.1,0-1.7-0.1c-0.3,0-0.6-0.1-0.8-0.1c-0.5,0-1.1,0.2-1.6,0.2c-0.6,0-1.2,0-1.7,0
		c-2,0-5.3-0.1-7.3-0.1c-0.4,0.3-1.4,0.2-1.9,0.2C9.4,14.8,9,14.8,9,15c-0.3-0.1-0.4,0.1-0.7,0.2c-0.8,1.6,0.6,2.1,1.8,2.2
		c1.3,0.2,2.3-0.1,3.5,0c0.6,0,1.2,0.2,1.7,0.2c0.5,0,1.1-0.2,1.4-0.3c1.2,0.3,3.9,0,4.8,0c1-0.5,2.4-0.4,3.2-1.1
		c0-0.2,0.1-0.5,0.3-0.7C25,15.1,24.8,14.8,24.6,14.4"/>
	<path fill="#231F20" d="M24.6,21.8c-0.5-0.2-1.1,0-1.7-0.1c-0.3,0-0.6-0.1-0.8-0.1c-0.5,0-1.1,0.2-1.6,0.2c-0.6,0-1.2,0-1.7,0
		c-2,0-5.3-0.1-7.3-0.1C11,22,10,22,9.5,22C9.4,22.2,9,22.2,9,22.4c-0.3-0.1-0.4,0.1-0.7,0.2c-0.8,1.6,0.6,2.1,1.8,2.2
		c1.3,0.2,2.3-0.1,3.5,0c0.6,0,1.2,0.2,1.7,0.2c0.5,0,1.1-0.2,1.4-0.3c1.2,0.3,3.9,0,4.8,0c1-0.5,2.4-0.4,3.2-1.1
		c0-0.2,0.1-0.5,0.3-0.7C25,22.5,24.8,22.1,24.6,21.8"/>
</g>
</svg>
