<?xml version="1.0" encoding="utf-8"?>
<!-- Generator: Adobe Illustrator 18.1.1, SVG Export Plug-In . SVG Version: 6.00 Build 0)  -->
<!DOCTYPE svg PUBLIC "-//W3C//DTD SVG 1.1//EN" "http://www.w3.org/Graphics/SVG/1.1/DTD/svg11.dtd">
<svg version="1.1" id="Layer_1" xmlns="http://www.w3.org/2000/svg" xmlns:xlink="http://www.w3.org/1999/xlink" x="0px" y="0px"
	 viewBox="5.2 6.5 21.4 19" enable-background="new 5.2 6.5 21.4 19" xml:space="preserve">
<g>
	<path fill="#231F20" d="M16.1,25.5l10.5-2.4l0-16.6L16.1,9.1v0L5.5,6.8L5.2,23.4L16,25.5v0l0,0L16.1,25.5z M14.5,23.7L6.9,22
		L7.1,8.7l7.6,1.9L14.5,23.7z M25,21.7l-7.3,1.9l0.1-13.1L25,8.5L25,21.7z"/>
	<g>
		<polygon fill="#231F20" points="19.2,13.5 19,12.4 23.3,11.3 23.4,12.4 		"/>
	</g>
	<g>
		<polygon fill="#231F20" points="12.9,13.2 8.2,12.1 8.3,11 13,12.1 		"/>
	</g>
	<g>
		<polygon fill="#231F20" points="19.1,16.2 19,15.1 23.2,14 23.3,15.1 		"/>
	</g>
	<g>
		<polygon fill="#231F20" points="12.9,16 8.2,14.8 8.3,13.7 13,14.9 		"/>
	</g>
	<g>
		<polygon fill="#231F20" points="19.2,18.7 19,17.6 23.3,16.5 23.4,17.6 		"/>
	</g>
	<g>
		<polygon fill="#231F20" points="19.3,21.2 19.1,20.1 23.4,19 23.5,20.1 		"/>
	</g>
	<g>
		<polygon fill="#231F20" points="12.9,18.5 8.2,17.4 8.3,16.3 13,17.5 		"/>
	</g>
	<g>
		<polygon fill="#231F20" points="12.8,21.2 8.2,20 8.3,18.9 12.9,20.1 		"/>
	</g>
</g>
</svg>
