<?xml version="1.0" encoding="utf-8"?>
<!-- Generator: Adobe Illustrator 18.1.1, SVG Export Plug-In . SVG Version: 6.00 Build 0)  -->
<!DOCTYPE svg PUBLIC "-//W3C//DTD SVG 1.1//EN" "http://www.w3.org/Graphics/SVG/1.1/DTD/svg11.dtd">
<svg version="1.1" id="Layer_1" xmlns="http://www.w3.org/2000/svg" xmlns:xlink="http://www.w3.org/1999/xlink" x="0px" y="0px"
	 viewBox="3.5 7 25.8 18.3" enable-background="new 3.5 7 25.8 18.3" xml:space="preserve">
<g>
	<g>
		<defs>
			<filter id="Adobe_OpacityMaskFilter" filterUnits="userSpaceOnUse" x="3.9" y="7" width="25.5" height="18.3">
				<feColorMatrix  type="matrix" values="1 0 0 0 0  0 1 0 0 0  0 0 1 0 0  0 0 0 1 0"/>
			</filter>
		</defs>
		<mask maskUnits="userSpaceOnUse" x="3.9" y="7" width="25.5" height="18.3" id="SVGID_1_">
			<g filter="url(#Adobe_OpacityMaskFilter)">
				<g>
					<g>
						<defs>
							<rect id="SVGID_2_" x="-0.8" y="2.3" width="34.9" height="27.7"/>
						</defs>
						<clipPath id="SVGID_3_">
							<use xlink:href="#SVGID_2_"  overflow="visible"/>
						</clipPath>
						<g transform="matrix(1 0 0 1 -9.536743e-07 0)">
							<g clip-path="url(#SVGID_3_)" enable-background="new    ">
								
									<image overflow="visible" width="774" height="615" xlink:href="B575A8EE2D7EDAEA.jpeg"  transform="matrix(4.515160e-02 0 0 4.509334e-02 -0.8263 2.2903)">
								</image>
							</g>
						</g>
					</g>
				</g>
			</g>
		</mask>
		<g mask="url(#SVGID_1_)">
			<g>
				<g>
					<defs>
						<rect id="SVGID_4_" x="3.9" y="7" width="25.5" height="18.3"/>
					</defs>
					<clipPath id="SVGID_5_">
						<use xlink:href="#SVGID_4_"  overflow="visible"/>
					</clipPath>
					<rect x="3.9" y="7" clip-path="url(#SVGID_5_)" fill="#D5D5D5" width="25.5" height="18.3"/>
				</g>
			</g>
		</g>
		<path fill="#FFF2D3" d="M3.5,10.3l1.2-2.5l1.8,0.6l0.9-0.6c0,0,1.3-0.2,1.6,0C9.3,8,9.7,8,10,8c0.3,0,2.2,0.1,2.5,0.1
			s0.8-0.8,1.3-0.4c0.5,0.4,1.3,0.8,1.3,0.8l1.5-0.3l1.3-0.7c0,0,0.5,0.5,0.9,0.5c0.4,0,1.5-0.5,1.5-0.5h1.1l1.5,0.5l1-0.5l-0.2-0.5
			l2.1,0.4l1.1,0.5c0,0,0.7-0.1,1-0.1c0.3-0.1,1.1-0.1,1.1-0.1s-1,15.5,0,17.5c-5.2-0.9-24.1-0.2-25-0.1C4.2,21.3,3.5,10.3,3.5,10.3
			"/>
	</g>
</g>
</svg>
