<?xml version="1.0" encoding="utf-8"?>
<!-- Generator: Adobe Illustrator 18.1.1, SVG Export Plug-In . SVG Version: 6.00 Build 0)  -->
<!DOCTYPE svg PUBLIC "-//W3C//DTD SVG 1.1//EN" "http://www.w3.org/Graphics/SVG/1.1/DTD/svg11.dtd">
<svg version="1.1" id="Layer_1" xmlns="http://www.w3.org/2000/svg" xmlns:xlink="http://www.w3.org/1999/xlink" x="0px" y="0px"
	 viewBox="5.6 8.1 21.7 16.3" enable-background="new 5.6 8.1 21.7 16.3" xml:space="preserve">
<g>
	<g>
		<defs>
			<filter id="Adobe_OpacityMaskFilter" filterUnits="userSpaceOnUse" x="6" y="8.1" width="21.4" height="16.3">
				<feColorMatrix  type="matrix" values="1 0 0 0 0  0 1 0 0 0  0 0 1 0 0  0 0 0 1 0"/>
			</filter>
		</defs>
		<mask maskUnits="userSpaceOnUse" x="6" y="8.1" width="21.4" height="16.3" id="SVGID_1_">
			<g filter="url(#Adobe_OpacityMaskFilter)">
				<g>
					<g>
						<defs>
							<rect id="SVGID_2_" x="1.6" y="3.7" width="30.2" height="25.1"/>
						</defs>
						<clipPath id="SVGID_3_">
							<use xlink:href="#SVGID_2_"  overflow="visible"/>
						</clipPath>
						<g transform="matrix(1 0 0 1 -1.907349e-06 0)">
							<g transform="matrix(1 0 0 1 1.192093e-07 0)" clip-path="url(#SVGID_3_)" enable-background="new    ">
								
									<image overflow="visible" width="725" height="603" xlink:href="BE5969F19CDCA222.jpeg"  transform="matrix(4.163038e-02 0 0 4.158365e-02 1.5705 3.6724)">
								</image>
							</g>
						</g>
					</g>
				</g>
			</g>
		</mask>
		<g mask="url(#SVGID_1_)">
			<g>
				<g>
					<defs>
						<rect id="SVGID_4_" x="6" y="8.1" width="21.4" height="16.3"/>
					</defs>
					<clipPath id="SVGID_5_">
						<use xlink:href="#SVGID_4_"  overflow="visible"/>
					</clipPath>
					<rect x="6" y="8.1" clip-path="url(#SVGID_5_)" fill="#D5D5D5" width="21.4" height="16.3"/>
				</g>
			</g>
		</g>
		<path fill="#FFF2D3" d="M5.8,9.7V8.1c0,0,20.6,0.9,21.1,0.1c0.3-0.6-0.2,16.1-0.2,16.1l-21,0l0.1-2L6,22.6h0.4l0.1-0.5l-0.6,0
			l-0.1-0.8l0.4,0.1c0,0,0.3,0.1,0.3,0V21l-0.7,0l-0.1-0.7l0.4,0.1l0.1-0.1l0.1-0.5H5.9l-0.1-0.6l0.4,0h0.3l0-0.4c0,0-0.6,0.1-0.7,0
			c-0.1-0.1-0.1-1.1-0.1-1.1L6,18.2l0.4,0v-0.4l-0.7-0.3l0-0.4h0.5L6.5,17v-0.4l-0.5,0l-0.3,0.2l0.1-1l0.4,0.4l0.3-0.1v-0.7H5.8
			v-0.6l0.3,0.1l0.4,0l-0.1-0.6H5.8v-0.7l0.4,0.1l0.2,0v-0.6H5.9l-0.3-0.9l0.4,0.3h0.4l0.1-0.4L6,12l-0.1,0l-0.1-0.8l0.3,0.3h0.4
			l-0.1-0.7H5.8v-0.5l0.4,0.1h0.2l0-0.4L5.8,9.7z"/>
	</g>
</g>
</svg>
