<?xml version="1.0" encoding="utf-8"?>
<!-- Generator: Adobe Illustrator 18.1.1, SVG Export Plug-In . SVG Version: 6.00 Build 0)  -->
<!DOCTYPE svg PUBLIC "-//W3C//DTD SVG 1.1//EN" "http://www.w3.org/Graphics/SVG/1.1/DTD/svg11.dtd">
<svg version="1.1" id="Layer_1" xmlns="http://www.w3.org/2000/svg" xmlns:xlink="http://www.w3.org/1999/xlink" x="0px" y="0px"
	 viewBox="4.4 7.7 23.2 17.9" enable-background="new 4.4 7.7 23.2 17.9" xml:space="preserve">
<g>
	<g>
		<defs>
			<filter id="Adobe_OpacityMaskFilter" filterUnits="userSpaceOnUse" x="4.7" y="7.7" width="22.9" height="17.9">
				<feColorMatrix  type="matrix" values="1 0 0 0 0  0 1 0 0 0  0 0 1 0 0  0 0 0 1 0"/>
			</filter>
		</defs>
		<mask maskUnits="userSpaceOnUse" x="4.7" y="7.7" width="22.9" height="17.9" id="SVGID_1_">
			<g filter="url(#Adobe_OpacityMaskFilter)">
				<g>
					<g>
						<defs>
							<rect id="SVGID_2_" x="0.3" y="3.3" width="31.7" height="25.7"/>
						</defs>
						<clipPath id="SVGID_3_">
							<use xlink:href="#SVGID_2_"  overflow="visible"/>
						</clipPath>
						<g>
							<g clip-path="url(#SVGID_3_)" enable-background="new    ">
								
									<image overflow="visible" width="753" height="610" xlink:href="CF6A80A3AF400D4C.jpeg"  transform="matrix(4.214934e-02 0 0 4.214934e-02 0.305 3.2775)">
								</image>
							</g>
						</g>
					</g>
				</g>
			</g>
		</mask>
		<g mask="url(#SVGID_1_)">
			<g>
				<g>
					<defs>
						<rect id="SVGID_4_" x="4.7" y="7.7" width="22.9" height="17.9"/>
					</defs>
					<clipPath id="SVGID_5_">
						<use xlink:href="#SVGID_4_"  overflow="visible"/>
					</clipPath>
					<rect x="4.7" y="7.7" clip-path="url(#SVGID_5_)" fill="#D5D5D5" width="22.9" height="17.9"/>
				</g>
			</g>
		</g>
		<path fill="#FFF2D3" d="M24.6,10.2c-0.3,0.2-0.4-0.1-0.5-0.3c-0.2-0.2-0.2-0.5,0.1-0.6c0.3-0.1,0.6,0,0.8,0.2
			C25.1,9.7,24.9,10,24.6,10.2 M22.4,10.2C22,10.1,22,9.8,22,9.6c0-0.2,0.2-0.5,0.2-0.5l0.3,0c0,0,0.5,0.1,0.5,0.5
			C22.9,10,22.8,10.3,22.4,10.2 M20.8,10.2c-0.3,0-0.7-0.1-0.7-0.4c0-0.3,0.2-0.6,0.2-0.6c0.4-0.2,0.7,0,0.8,0.3
			C21.1,9.8,21.1,10.2,20.8,10.2 M19.1,9.6c-0.1,0.3-0.1,0.7-0.6,0.6c-0.4-0.1-0.5-0.4-0.4-0.6l0.1-0.2l0.1-0.4h0.3
			C18.7,9.1,19.2,9.3,19.1,9.6 M17,10.1c-0.3,0.2-0.6,0-0.7-0.2c-0.1-0.2,0.1-0.6,0.4-0.8c0.1-0.1,0.4,0,0.6,0.3
			C17.4,9.6,17.3,10,17,10.1 M13.1,10.2c-0.3,0.1-0.6-0.2-0.6-0.4c0-0.2,0-0.6,0.5-0.7c0.2-0.1,0.4,0.2,0.5,0.5
			C13.6,9.9,13.4,10.1,13.1,10.2 M11.1,10.1c-0.4,0.1-0.5,0-0.6-0.3c-0.1-0.2,0-0.6,0.5-0.7c0.2,0,0.5,0.3,0.5,0.5
			C11.6,9.8,11.5,10,11.1,10.1 M9.3,10.2c-0.2,0-0.5,0.1-0.7-0.5C8.5,9.4,8.7,9.2,9,9.1C9.3,9,9.7,9.4,9.7,9.7
			C9.7,10,9.5,10.2,9.3,10.2 M27.1,8.8l-3.6-0.2h-1.3l-0.2,0.2l-2.7-0.2l-1.1-0.2l0.1,0.6l-2.6-0.2l-0.6-1l0.2,1.3l0.2,0.9
			c0,0-0.8,0.6-0.9,0.1c0-0.5,0-0.8,0-0.8l-0.5-0.4l-3.7-0.1l0,0.2L8.5,8.7L8.3,8.9L7.4,9.1l0.1,0.4c0,0,0.6,0.7-0.1,0.8
			C6.7,10.4,6.8,10,6.9,9.4c0.1-0.6-0.5-0.6-0.5-0.6H4.4v16.4v0.3c0,0,4.8-0.2,5.1-0.2c0.3,0,14-0.1,14-0.1h3.8V12.3L27.1,8.8z"/>
	</g>
</g>
</svg>
