<?xml version="1.0" encoding="utf-8"?>
<!-- Generator: Adobe Illustrator 18.1.1, SVG Export Plug-In . SVG Version: 6.00 Build 0)  -->
<!DOCTYPE svg PUBLIC "-//W3C//DTD SVG 1.1//EN" "http://www.w3.org/Graphics/SVG/1.1/DTD/svg11.dtd">
<svg version="1.1" id="Layer_1" xmlns="http://www.w3.org/2000/svg" xmlns:xlink="http://www.w3.org/1999/xlink" x="0px" y="0px"
	 viewBox="4.3 8.2 23.9 15.8" enable-background="new 4.3 8.2 23.9 15.8" xml:space="preserve">
<g>
	<g>
		<defs>
			<filter id="Adobe_OpacityMaskFilter" filterUnits="userSpaceOnUse" x="4.6" y="8.2" width="23.6" height="15.8">
				<feColorMatrix  type="matrix" values="1 0 0 0 0  0 1 0 0 0  0 0 1 0 0  0 0 0 1 0"/>
			</filter>
		</defs>
		<mask maskUnits="userSpaceOnUse" x="4.6" y="8.2" width="23.6" height="15.8" id="SVGID_1_">
			<g filter="url(#Adobe_OpacityMaskFilter)">
				<g>
					<g>
						<defs>
							<rect id="SVGID_2_" x="0" y="3.6" width="32.7" height="24.9"/>
						</defs>
						<clipPath id="SVGID_3_">
							<use xlink:href="#SVGID_2_"  overflow="visible"/>
						</clipPath>
						<g transform="matrix(1 0 0 1 0 0)">
							<g clip-path="url(#SVGID_3_)" enable-background="new    ">
								
									<image overflow="visible" width="750" height="572" xlink:href="5C5699430D5A4E4E.jpeg"  transform="matrix(4.362075e-02 0 0 4.356267e-02 2.223996e-02 3.6422)">
								</image>
							</g>
						</g>
					</g>
				</g>
			</g>
		</mask>
		<g mask="url(#SVGID_1_)">
			<g>
				<g>
					<defs>
						<rect id="SVGID_4_" x="4.6" y="8.2" width="23.6" height="15.8"/>
					</defs>
					<clipPath id="SVGID_5_">
						<use xlink:href="#SVGID_4_"  overflow="visible"/>
					</clipPath>
					<rect x="4.6" y="8.2" clip-path="url(#SVGID_5_)" fill="#D5D5D5" width="23.6" height="15.8"/>
				</g>
			</g>
		</g>
		<path fill="#FFF2D3" d="M27.3,9.5v3.3v1.6l0.4,0.6l-0.2,0.9v1.7c0,0.3,0.2,2.1,0.2,2.1V21l-0.4,1.4l-1.4,0.8l-3.9,0.4l-2.9-0.4
			l-1.4,0.4L16.6,24l-0.8-0.8c0,0-1.6,1.2-1.8,0.8c-0.2-0.3-3.8-0.8-3.8-0.8s-2,0.1-2.3,0s-2.3,0-2.3,0L4.8,21l-0.5-3.2
			c0,0,0.5-1,0.5-1.5c0-0.5-0.1-3.2-0.1-3.2l0.1-1.9c0,0-0.8-1.5-0.5-1.7s2.3-1.1,2.3-1.1l2.8,0.3c0,0,1.7,1,2.1,0.8
			c0.4-0.3,3.7-0.5,3.7-0.5s1.8-0.2,2.2-0.2c0.3,0,2.7,0.7,2.9,0.7c0.3,0,2.1,0.2,2.9,0s2.6,0,2.6,0l1.8-0.6L27.3,9.5z"/>
	</g>
</g>
</svg>
