<?xml version="1.0" encoding="utf-8"?>
<!-- Generator: Adobe Illustrator 18.1.1, SVG Export Plug-In . SVG Version: 6.00 Build 0)  -->
<!DOCTYPE svg PUBLIC "-//W3C//DTD SVG 1.1//EN" "http://www.w3.org/Graphics/SVG/1.1/DTD/svg11.dtd">
<svg version="1.1" id="Layer_1" xmlns="http://www.w3.org/2000/svg" xmlns:xlink="http://www.w3.org/1999/xlink" x="0px" y="0px"
	 viewBox="5.1 7.9 23.3 17" enable-background="new 5.1 7.9 23.3 17" xml:space="preserve">
<g>
	<g>
		<defs>
			<filter id="Adobe_OpacityMaskFilter" filterUnits="userSpaceOnUse" x="5.4" y="8.1" width="22.9" height="16.8">
				<feColorMatrix  type="matrix" values="1 0 0 0 0  0 1 0 0 0  0 0 1 0 0  0 0 0 1 0"/>
			</filter>
		</defs>
		<mask maskUnits="userSpaceOnUse" x="5.4" y="8.1" width="22.9" height="16.8" id="SVGID_1_">
			<g filter="url(#Adobe_OpacityMaskFilter)">
				<g>
					<g>
						<defs>
							<rect id="SVGID_2_" x="0.9" y="3.2" width="31.9" height="26.1"/>
						</defs>
						<clipPath id="SVGID_3_">
							<use xlink:href="#SVGID_2_"  overflow="visible"/>
						</clipPath>
						<g transform="matrix(1 0 0 1 0 -3.814697e-06)">
							<g transform="matrix(1 0 0 1 5.960464e-08 0)" clip-path="url(#SVGID_3_)" enable-background="new    ">
								
									<image overflow="visible" width="742" height="613" xlink:href="BD350B46AEAB47A2.jpg"  transform="matrix(4.301395e-02 0 0 4.254054e-02 0.8888 3.2453)">
								</image>
							</g>
						</g>
					</g>
				</g>
			</g>
		</mask>
		<g mask="url(#SVGID_1_)">
			<g>
				<g>
					<defs>
						<polygon id="SVGID_4_" points="5.5,8.1 28.3,8.1 28.3,24.9 5.4,24.9 						"/>
					</defs>
					<clipPath id="SVGID_5_">
						<use xlink:href="#SVGID_4_"  overflow="visible"/>
					</clipPath>
					<polygon clip-path="url(#SVGID_5_)" fill="#D5D5D5" points="5.5,8.1 28.3,8.1 28.3,24.9 5.4,24.9 					"/>
				</g>
			</g>
		</g>
		<path fill="#FFF2D3" d="M5.1,10.2l0.2,14c0,0,0.3,0.7,0.4,0.7c0.1,0,22.2-0.2,22.2-0.2l-0.1-3.8l0-10.3l-0.4,0l0-0.6L28,9.7V9.2
			h-7.4l-0.2,0.6l0,0.5l-0.8,0.2l0-0.6l-0.1-0.5l0.2,0.2l0.8-0.7l-0.4-0.5l-0.9,1.1h-1l-0.1-0.5h-0.5l-0.1,0.3l0.4,0.4l0.5,0.4
			l0.1,0.5l-0.9,0l-0.1-0.6l0.2-0.1l-0.2-0.4l-0.9-0.2l-0.2,0.5l0.2,0.3l-0.1,0.5l-1,0l0.1-0.6l0.3-0.2l-0.3-0.4h-0.8l0-0.3l-1,0.1
			h-1l0-0.2l-0.9,0.2l-1.5,0l0.1,0.6l0.4,0.2l-0.2,0.5l-0.9,0.2l0.2-0.6L9.7,9.3L8.8,9.2L8.5,9.8l0.2,0.2l-0.1,0.4l-0.9,0l0.1-0.6
			L7.6,9.2H6.9L6.7,9.9l0,0.5l-0.8,0.1L6,9.7L5.7,9.5c0,0,0.1-1.6,0-1.5c-0.1,0-0.3,1-0.3,1L5.1,10.2z"/>
	</g>
</g>
</svg>
