<?xml version="1.0" encoding="utf-8"?>
<!-- Generator: Adobe Illustrator 18.1.1, SVG Export Plug-In . SVG Version: 6.00 Build 0)  -->
<!DOCTYPE svg PUBLIC "-//W3C//DTD SVG 1.1//EN" "http://www.w3.org/Graphics/SVG/1.1/DTD/svg11.dtd">
<svg version="1.1" id="Layer_1" xmlns="http://www.w3.org/2000/svg" xmlns:xlink="http://www.w3.org/1999/xlink" x="0px" y="0px"
	 viewBox="5.4 8.2 21.6 16" enable-background="new 5.4 8.2 21.6 16" xml:space="preserve">
<g>
	<g>
		<defs>
			<filter id="Adobe_OpacityMaskFilter" filterUnits="userSpaceOnUse" x="5.7" y="8.2" width="21.3" height="16">
				<feColorMatrix  type="matrix" values="1 0 0 0 0  0 1 0 0 0  0 0 1 0 0  0 0 0 1 0"/>
			</filter>
		</defs>
		<mask maskUnits="userSpaceOnUse" x="5.7" y="8.2" width="21.3" height="16" id="SVGID_1_">
			<g filter="url(#Adobe_OpacityMaskFilter)">
				<g>
					<g>
						<defs>
							<rect id="SVGID_2_" x="1.5" y="4" width="29.8" height="24.4"/>
						</defs>
						<clipPath id="SVGID_3_">
							<use xlink:href="#SVGID_2_"  overflow="visible"/>
						</clipPath>
						<g>
							<g clip-path="url(#SVGID_3_)" enable-background="new    ">
								
									<image overflow="visible" width="738" height="607" xlink:href="C31AA3C9B50D263F.jpeg"  transform="matrix(4.033461e-02 0 0 4.025626e-02 1.5011 3.9981)">
								</image>
							</g>
						</g>
					</g>
				</g>
			</g>
		</mask>
		<g mask="url(#SVGID_1_)">
			<g>
				<g>
					<defs>
						<rect id="SVGID_4_" x="5.7" y="8.2" width="21.3" height="16"/>
					</defs>
					<clipPath id="SVGID_5_">
						<use xlink:href="#SVGID_4_"  overflow="visible"/>
					</clipPath>
					<rect x="5.7" y="8.2" clip-path="url(#SVGID_5_)" fill="#D5D5D5" width="21.3" height="16"/>
				</g>
			</g>
		</g>
		<path fill="#FFF2D3" d="M26.5,8.5c0,0,0.4,6.6,0.1,8.9S26,23.1,26,23.1s-8.2,0.9-15.1,1.1c-1.9,0.1-5.4-0.4-5.4-0.4L5.9,9
			c0,0,2.1-0.8,4-0.7C11.9,8.3,26.5,8.5,26.5,8.5"/>
	</g>
</g>
</svg>
