<?xml version="1.0" encoding="utf-8"?>
<!-- Generator: Adobe Illustrator 18.1.1, SVG Export Plug-In . SVG Version: 6.00 Build 0)  -->
<!DOCTYPE svg PUBLIC "-//W3C//DTD SVG 1.1//EN" "http://www.w3.org/Graphics/SVG/1.1/DTD/svg11.dtd">
<svg version="1.1" id="Layer_1" xmlns="http://www.w3.org/2000/svg" xmlns:xlink="http://www.w3.org/1999/xlink" x="0px" y="0px"
	 viewBox="4.7 8.1 23.4 18.6" enable-background="new 4.7 8.1 23.4 18.6" xml:space="preserve">
<g>
	<g>
		<defs>
			<filter id="Adobe_OpacityMaskFilter" filterUnits="userSpaceOnUse" x="5" y="8.1" width="23.1" height="18.6">
				<feColorMatrix  type="matrix" values="1 0 0 0 0  0 1 0 0 0  0 0 1 0 0  0 0 0 1 0"/>
			</filter>
		</defs>
		<mask maskUnits="userSpaceOnUse" x="5" y="8.1" width="23.1" height="18.6" id="SVGID_1_">
			<g filter="url(#Adobe_OpacityMaskFilter)">
				<g>
					<g>
						<defs>
							<rect id="SVGID_2_" x="0.5" y="3.2" width="32.1" height="26"/>
						</defs>
						<clipPath id="SVGID_3_">
							<use xlink:href="#SVGID_2_"  overflow="visible"/>
						</clipPath>
						<g transform="matrix(1 0 0 1 0 3.814697e-06)">
							<g clip-path="url(#SVGID_3_)" enable-background="new    ">
								
									<image overflow="visible" width="745" height="603" xlink:href="9AA989EB337A5B88.jpeg"  transform="matrix(4.309551e-02 0 0 4.306503e-02 0.5192 3.231)">
								</image>
							</g>
						</g>
					</g>
				</g>
			</g>
		</mask>
		<g mask="url(#SVGID_1_)">
			<g>
				<g>
					<defs>
						<rect id="SVGID_4_" x="5" y="8.1" width="23.1" height="18.6"/>
					</defs>
					<clipPath id="SVGID_5_">
						<use xlink:href="#SVGID_4_"  overflow="visible"/>
					</clipPath>
					<rect x="5" y="8.1" clip-path="url(#SVGID_5_)" fill="#D5D5D5" width="23.1" height="18.6"/>
				</g>
			</g>
		</g>
		<path fill="#FFF2D3" d="M23.3,10.9l-0.2,0.2h-1.1L21.9,11v-0.7l0.2-0.2h0.9l0.2,0.2L23.3,10.9L23.3,10.9z M20.4,11l-0.2,0.2
			l-1.1-0.1l-0.2-0.2l0.1-0.7l0.2-0.2h1l0.2,0.3C20.4,10.3,20.4,11,20.4,11z M17.4,10.9c0,0.1-0.2,0.3-0.2,0.3s-0.9,0-1,0
			c-0.2,0-0.4-0.1-0.4-0.1s0-0.5,0-0.7c0-0.2,0.5-0.2,0.5-0.2s0.5,0,0.7,0s0.3,0.1,0.3,0.1V10.9z M14.5,11c0,0.1-0.3,0.2-0.3,0.2
			h-0.9c-0.2,0-0.3-0.2-0.3-0.2v-0.7c0-0.1,0.3-0.2,0.3-0.2s0.7,0,0.9,0c0.2,0,0.3,0.2,0.3,0.2V11z M11.4,10.6v0.4l-0.8,0.1h-0.5
			L10,10.7l0.3-0.4l1-0.2l0.2,0.2L11.4,10.6L11.4,10.6z M8.3,11.2h-1L7,10.9v-0.4l0.3-0.3h1.1l0.2,0.5L8.3,11.2z M27.4,9.4l-0.6,0
			l-0.2-0.6l-1.1-0.5l-0.7,0.4l1.8,0.8L26.2,10l0,1l-1.4,0.2l-0.1-1l0.3-0.2L24.4,9l-4.3,0.1l-2.1,0L16.2,9l-2.6,0H11L8.2,9.1
			l-3,0.1L5,9.9l0.2,0.3l0.3,0.2c0,0,0.2,0.7,0,0.8s-0.8,0.2-0.8,0.2v15.5h1.9L8.2,26l2.3-0.5l1.3-0.5l1.7-0.2l3,0l1.6,1.1l2.7,0.5
			l1.1-0.7l1.6-0.3l2.3-0.4h2L27.4,9.4z"/>
	</g>
</g>
</svg>
