<?xml version="1.0" encoding="utf-8"?>
<!-- Generator: Adobe Illustrator 18.1.1, SVG Export Plug-In . SVG Version: 6.00 Build 0)  -->
<!DOCTYPE svg PUBLIC "-//W3C//DTD SVG 1.1//EN" "http://www.w3.org/Graphics/SVG/1.1/DTD/svg11.dtd">
<svg version="1.1" id="Layer_1" xmlns="http://www.w3.org/2000/svg" xmlns:xlink="http://www.w3.org/1999/xlink" x="0px" y="0px"
	 viewBox="4.9 10.4 22.6 11.3" enable-background="new 4.9 10.4 22.6 11.3" xml:space="preserve">
<g>
	<path fill="#231F20" d="M21.9,10.4c-3.1,0-5.7,2.5-5.7,5.7c0,2.1,1.2,4,3,5v-4.8c0-0.1,0-0.1,0-0.2c0-1.5,1.2-2.7,2.7-2.7
		c1.5,0,2.7,1.2,2.7,2.7s-1.2,2.7-2.7,2.7c-0.9,0-1.7-0.4-2.2-1.1v3.6c0.7,0.3,1.4,0.4,2.2,0.4c3.1,0,5.7-2.5,5.7-5.7
		C27.5,12.9,25,10.4,21.9,10.4"/>
	<path fill="#231F20" d="M10.6,10.4c-3.1,0-5.7,2.5-5.7,5.7c0,2.1,1.2,4,3,5v-4.8c0-0.1,0-0.1,0-0.2c0-1.5,1.2-2.7,2.7-2.7
		s2.7,1.2,2.7,2.7s-1.2,2.7-2.7,2.7c-0.9,0-1.7-0.4-2.2-1.1v3.6c0.7,0.3,1.4,0.4,2.2,0.4c3.1,0,5.7-2.5,5.7-5.7
		C16.3,12.9,13.7,10.4,10.6,10.4"/>
</g>
</svg>
