<?xml version="1.0" encoding="utf-8"?>
<!-- Generator: Adobe Illustrator 18.1.1, SVG Export Plug-In . SVG Version: 6.00 Build 0)  -->
<!DOCTYPE svg PUBLIC "-//W3C//DTD SVG 1.1//EN" "http://www.w3.org/Graphics/SVG/1.1/DTD/svg11.dtd">
<svg version="1.1" id="Layer_1" xmlns="http://www.w3.org/2000/svg" xmlns:xlink="http://www.w3.org/1999/xlink" x="0px" y="0px"
	 viewBox="5.3 5.5 22.3 19.7" enable-background="new 5.3 5.5 22.3 19.7" xml:space="preserve">
<g>
	<g>
		<path fill="#231F20" d="M16.4,5.5c-6.2,0-11.2,4.4-11.2,9.9c0,5.4,5,9.9,11.2,9.9s11.2-4.4,11.2-9.9S22.6,5.5,16.4,5.5z M16.4,23
			c-4.9,0-8.9-3.4-8.9-7.6c0-4.2,4-7.6,8.9-7.6s8.9,3.4,8.9,7.6C25.3,19.6,21.3,23,16.4,23z"/>
	</g>
	<g>
		<polygon fill="#231F20" points="14,20.7 10.3,17.6 11.6,16.1 13.8,17.9 20.2,10.7 21.7,12 		"/>
	</g>
</g>
</svg>
